<?xml version="1.0" encoding="utf-8"?>
<!-- Generator: Adobe Illustrator 19.0.0, SVG Export Plug-In . SVG Version: 6.00 Build 0)  -->
<svg version="1.1" id="图层_1" xmlns="http://www.w3.org/2000/svg" xmlns:xlink="http://www.w3.org/1999/xlink" x="0px" y="0px"
	 viewBox="0 0 167.791 146.736" enable-background="new 0 0 167.791 146.736" xml:space="preserve">
<path class="board-svg" fill="#fff" style="border: 1px solid #f00" d="M148.458,70.224c0,0-4.333-1-4.667-5c-0.333-4,4.833-7.167,4.833-7.167l9.167-5.833c0,0,10-7,10-16
	s-9-16.333-9-16.333s-44-37.667-99.667-9.333C3.458,38.891,2.458,68.224,2.458,68.224s-7.333,24,3.333,45.333
	c10.667,21.333,38.667,31,47.667,32.667c9,1.667,36-0.667,60-8c24-7.333,45.333-38,45.333-38s8.333-7.411,4.667-17.667
	S148.458,70.224,148.458,70.224z M148.438,98.197c-5.66,4.565-12.638,5.303-15.585,1.649c-2.947-3.654-0.747-10.317,4.913-14.882
	c5.66-4.565,12.638-5.303,15.585-1.649C156.298,86.969,154.099,93.632,148.438,98.197z"/>
</svg>
